<svg width="48" height="48" viewBox="0 0 48 48" fill="none" xmlns="http://www.w3.org/2000/svg">
<path d="M0 24C0 10.7452 10.7452 0 24 0C37.2548 0 48 10.7452 48 24C48 37.2548 37.2548 48 24 48C10.7452 48 0 37.2548 0 24Z" fill="white"/>
<path fill-rule="evenodd" clip-rule="evenodd" d="M28.5196 11.6001C28.7164 12.9364 28.1725 14.2455 27.455 15.1717C26.6873 16.1651 25.3642 16.9335 24.0822 16.8934C23.8482 15.6141 24.4474 14.2959 25.1765 13.4098C25.9763 12.4319 27.347 11.6816 28.5196 11.6001ZM32.3708 30.4084C33.0317 29.3956 33.2786 28.8846 33.7917 27.7411C30.0602 26.322 29.4623 21.0171 33.1552 18.981C32.0288 17.5684 30.4459 16.7496 28.9518 16.7496C27.8752 16.7496 27.1376 17.0305 26.467 17.2859C25.9082 17.4988 25.3959 17.6939 24.7728 17.6939C24.0996 17.6939 23.5033 17.4801 22.879 17.2563C22.193 17.0103 21.4731 16.7522 20.5797 16.7522C18.903 16.7522 17.1183 17.7767 15.9868 19.5282C14.3962 21.995 14.6675 26.6325 17.2469 30.5831C18.1688 31.997 19.4006 33.5855 21.0118 33.5997C21.6803 33.6063 22.1252 33.4068 22.6066 33.1909C23.1576 32.9437 23.7565 32.6751 24.7934 32.6696C25.8365 32.6634 26.4259 32.9352 26.9696 33.186C27.4387 33.4024 27.8737 33.603 28.5365 33.5958C30.1489 33.5829 31.4489 31.8223 32.3708 30.4084Z" fill="#0B0B0A"/>
</svg>
